<svg width="62" height="20" viewBox="0 0 62 20" fill="none" xmlns="http://www.w3.org/2000/svg">
<rect width="4" height="20" rx="2" fill="white"/>
<rect x="9" y="8" width="4" height="12" rx="2" fill="white"/>
<path d="M26 18C26 16.8954 26.8954 16 28 16V16C29.1046 16 30 16.8954 30 18V18C30 19.1046 29.1046 20 28 20V20C26.8954 20 26 19.1046 26 18V18Z" fill="white"/>
<path d="M58 18C58 16.8954 58.8954 16 60 16V16C61.1046 16 62 16.8954 62 18V18C62 19.1046 61.1046 20 60 20V20C58.8954 20 58 19.1046 58 18V18Z" fill="white"/>
<path d="M42 10C42 8.89543 42.8954 8 44 8V8C45.1046 8 46 8.89543 46 10V12C46 13.1046 45.1046 14 44 14V14C42.8954 14 42 13.1046 42 12V10Z" fill="white"/>
<path d="M18 2C18 0.895431 18.8954 0 20 0V0C21.1046 0 22 0.895431 22 2V18C22 19.1046 21.1046 20 20 20V20C18.8954 20 18 19.1046 18 18V2Z" fill="white"/>
<path d="M50 2C50 0.895431 50.8954 0 52 0V0C53.1046 0 54 0.895431 54 2V18C54 19.1046 53.1046 20 52 20V20C50.8954 20 50 19.1046 50 18V2Z" fill="white"/>
<rect x="34" width="4" height="20" rx="2" fill="white"/>
</svg>
